<svg width="300" height="300" viewBox="0 0 300 300" fill="none" xmlns="http://www.w3.org/2000/svg">
<mask id="path-1-inside-1_802_10" fill="white">
<path fill-rule="evenodd" clip-rule="evenodd" d="M229.976 210.004C213.262 222.56 192.486 230 169.972 230C114.743 230 69.9717 185.228 69.9717 130C69.9717 107.486 77.4118 86.7097 89.9675 69.9958C65.6809 88.2401 49.9717 117.286 49.9717 150C49.9717 205.228 94.7432 250 149.972 250C182.686 250 211.732 234.291 229.976 210.004Z"/>
</mask>
<path fill-rule="evenodd" clip-rule="evenodd" d="M229.976 210.004C213.262 222.56 192.486 230 169.972 230C114.743 230 69.9717 185.228 69.9717 130C69.9717 107.486 77.4118 86.7097 89.9675 69.9958C65.6809 88.2401 49.9717 117.286 49.9717 150C49.9717 205.228 94.7432 250 149.972 250C182.686 250 211.732 234.291 229.976 210.004Z" fill="white"/>
<path d="M229.976 210.004L232.374 211.806L228.174 207.606L229.976 210.004ZM89.9675 69.9958L92.3661 71.7977L88.1656 67.5972L89.9675 69.9958ZM228.174 207.606C211.962 219.784 191.814 227 169.972 227V233C193.158 233 214.562 225.335 231.778 212.403L228.174 207.606ZM169.972 227C116.4 227 72.9717 183.572 72.9717 130H66.9717C66.9717 186.885 113.086 233 169.972 233V227ZM72.9717 130C72.9717 108.158 80.1873 88.0099 92.3661 71.7977L87.5689 68.194C74.6363 85.4096 66.9717 106.814 66.9717 130H72.9717ZM52.9717 150C52.9717 118.269 68.2046 90.0965 91.7693 72.3944L88.1656 67.5972C63.1572 86.3838 46.9717 116.302 46.9717 150H52.9717ZM149.972 247C96.4001 247 52.9717 203.572 52.9717 150H46.9717C46.9717 206.885 93.0864 253 149.972 253V247ZM227.577 208.202C209.875 231.767 181.703 247 149.972 247V253C183.67 253 213.588 236.814 232.374 211.806L227.577 208.202Z" fill="#C4C4C4" mask="url(#path-1-inside-1_802_10)"/>
<path fill-rule="evenodd" clip-rule="evenodd" d="M229.976 210.004C242.532 193.29 249.972 172.514 249.972 150C249.972 94.7715 205.2 50 149.972 50C127.458 50 106.681 57.4401 89.9675 69.9958C89.9675 69.9958 89.9675 69.9958 89.9675 69.9958C88.7437 70.9151 87.5417 71.8619 86.3624 72.8351C87.5417 71.8619 88.7437 70.9151 89.9675 69.9958C77.4118 86.7097 69.9717 107.486 69.9717 130C69.9717 185.228 114.743 230 169.972 230C192.486 230 213.262 222.56 229.976 210.004C229.976 210.004 229.976 210.004 229.976 210.004Z" fill="#C4C4C4"/>
<path fill-rule="evenodd" clip-rule="evenodd" d="M243.282 113.964C246.369 112.285 249.332 110.652 252.161 109.069C264.49 102.174 274.235 96.2712 280.707 91.7588C283.903 89.53 286.21 87.703 287.628 86.3098C285.649 86.5005 282.767 87.0932 279.005 88.1091C271.388 90.1662 260.602 93.8365 247.396 98.849C244.379 99.994 241.239 101.208 237.985 102.487C237.182 101.003 236.343 99.5417 235.468 98.1041C238.986 96.7182 242.374 95.4069 245.621 94.1744C258.88 89.1423 269.846 85.4035 277.701 83.2821C281.61 82.2264 284.859 81.5403 287.277 81.3207C288.47 81.2124 289.62 81.2011 290.605 81.392C291.496 81.5648 292.935 82.0439 293.621 83.515C294.307 84.9861 293.749 86.397 293.308 87.1905C292.822 88.0673 292.074 88.9409 291.224 89.7851C289.502 91.4964 286.888 93.5443 283.566 95.8602C276.892 100.514 266.979 106.512 254.602 113.433C251.546 115.142 248.337 116.91 244.985 118.729C221.163 131.658 190.147 147.213 155.888 163.188C121.814 179.077 90.1207 192.776 64.9694 202.701C61.2745 204.159 57.7209 205.535 54.3216 206.826C41.0634 211.858 30.0969 215.596 22.2417 217.718C18.3328 218.774 15.0837 219.46 12.6655 219.679C11.4726 219.788 10.3227 219.799 9.33837 219.608C8.44746 219.435 7.00771 218.956 6.3217 217.485C5.6357 216.014 6.19417 214.603 6.63448 213.809C7.12097 212.933 7.86874 212.059 8.71847 211.215C10.4411 209.504 13.0551 207.456 16.3765 205.14C23.0508 200.486 32.964 194.488 45.341 187.567C48.4828 185.81 51.7867 183.991 55.2409 182.118C55.783 183.717 56.3645 185.299 56.9843 186.861C53.7805 188.601 50.7096 190.293 47.7815 191.931C35.4526 198.826 25.7079 204.729 19.2362 209.241C16.0398 211.47 13.7331 213.297 12.3151 214.69C14.2939 214.5 17.1762 213.907 20.9381 212.891C28.5547 210.834 39.3406 207.164 52.5474 202.151C55.703 200.953 58.9935 199.68 62.4082 198.336C87.5528 188.437 119.434 174.67 153.775 158.657C188.3 142.557 219.487 126.903 243.282 113.964ZM289.784 86.334C289.783 86.3345 289.77 86.331 289.748 86.3219C289.774 86.329 289.785 86.3335 289.784 86.334ZM288.981 84.678C288.989 84.6551 288.994 84.6429 288.995 84.6426C288.996 84.6422 288.992 84.6536 288.981 84.678ZM10.1954 214.678C10.1742 214.669 10.1613 214.666 10.1593 214.666C10.1591 214.666 10.1591 214.666 10.159 214.666C10.1581 214.667 10.1693 214.671 10.1954 214.678Z" fill="#918C8C"/>
</svg>
